<svg height='100px' width='100px'  fill="#63656a" xmlns="http://www.w3.org/2000/svg" xmlns:xlink="http://www.w3.org/1999/xlink" version="1.1" x="0px" y="0px" viewBox="0 0 100 100" enable-background="new 0 0 100 100" xml:space="preserve"><path d="M53.3,15.4l-8.6-9.1c-0.7-0.8-1.9-1-2.9-0.6l-13.4,5.5c-0.3,0.1-0.6,0.3-0.9,0.6L11.2,28.2c-0.3,0.3-0.5,0.6-0.6,0.9  L5.7,42.2c-0.4,1-0.1,2.1,0.7,2.8l8.9,8.4c-1.6,4.4-1.7,8.3,0.9,10.9c2.9,2.9,8.4,2.9,15.3,0c2.2-0.9,4.5-2.1,6.8-3.5l32.7,32.7  c2.9,2.9,11.5-0.7,16.6-5.8c5-5,8.7-13.7,5.8-16.6L60.7,38.4c1.4-2.3,2.6-4.6,3.5-6.8c2.9-6.9,2.9-12.4,0-15.3  C61.6,13.8,57.8,13.8,53.3,15.4z M44.6,13.8l8,8.5c0.2,0.2,0.2,0.4,0.2,0.7l-2.7,8.6c-0.2,0.5-0.8,0.6-1.2,0.3l-8.4-8.7  c-0.2-0.2-0.2-0.5-0.2-0.7l3.1-8.4C43.6,13.6,44.3,13.4,44.6,13.8z M12.1,40.2l3.2-8.6c0-0.1,0.1-0.2,0.2-0.2l15.5-15.5  c0.1-0.1,0.1-0.1,0.2-0.1l8.8-3.7c0.6-0.2,1.1,0.3,0.9,0.9l-3.3,8.9c0,0.1-0.1,0.2-0.2,0.3L22.1,37.5c-0.1,0.1-0.1,0.1-0.2,0.2  L13,41.1C12.4,41.3,11.9,40.8,12.1,40.2z M39,25.6L48,35c0.3,0.3,0.3,0.7,0,1L35.9,48.1c-0.3,0.3-0.7,0.3-1,0l-9.4-9.1  c-0.3-0.3-0.3-0.7,0-1L38,25.6C38.3,25.3,38.7,25.3,39,25.6z M14.1,43.7l8.3-3.2c0.2-0.1,0.5,0,0.7,0.1l8.7,8.4  c0.4,0.4,0.2,1-0.3,1.2l-8.6,2.7c-0.2,0.1-0.5,0-0.7-0.2l-8.4-7.8C13.5,44.5,13.6,43.9,14.1,43.7z M89.2,74.4  c-0.1,1.5-1.6,6-5.3,9.6c-3.7,3.7-8.1,5.1-9.6,5.3l-2.4-2.4c3-1,6.5-3.1,9.1-5.8s4.7-6.1,5.8-9.1L89.2,74.4z M84.2,69.4  c-0.5,2.2-2.1,6.1-5.5,9.5s-7.3,5-9.5,5.5l-3.5-3.5c2.9-1.1,6.3-3.2,9-5.9s4.8-6.1,5.9-9L84.2,69.4z M78.2,63.4  c-0.5,2.1-2.2,5.8-5.6,9.3s-7.2,5.1-9.3,5.6l-3.6-3.6c2.9-1.2,6.3-3.5,8.9-6.1c2.6-2.6,4.8-5.9,6.1-8.9L78.2,63.4z M72.2,57.4  c-0.6,2.1-2.5,5.8-5.8,9.1c-3.3,3.3-7,5.2-9.1,5.8l-3.6-3.6c3-1.3,6.3-3.8,8.7-6.2c2.4-2.4,4.9-5.8,6.2-8.7L72.2,57.4z M66.1,51.3  c-0.7,2-2.6,5.5-6,8.9c-3.4,3.4-6.9,5.3-8.9,6l-3.7-3.7c2.9-1.4,6.2-3.9,8.6-6.3c2.4-2.4,4.9-5.7,6.3-8.6L66.1,51.3z M60.1,45.3  c-0.7,1.9-2.7,5.2-6.2,8.7c-3.5,3.5-6.9,5.4-8.7,6.2l-2.4-2.4c2.8-2,5.5-4.4,8-6.9c2.5-2.5,4.9-5.2,6.9-8L60.1,45.3z M47.1,47.2  C34.7,59.5,22.3,62.9,19.9,60.6c-0.5-0.5-0.6-1.6-0.3-3.1l0.4,0.4c0.7,0.6,1.7,0.9,2.6,0.6l14.5-4.5c0.4-0.1,0.8-0.3,1.1-0.7l15-15  c0.3-0.3,0.5-0.7,0.7-1.1l4.5-14.5c0.3-0.9,0.1-1.9-0.6-2.6l-0.3-0.4c1.5-0.3,2.6-0.2,3.1,0.3C62.8,22.4,59.4,34.8,47.1,47.2z"></path></svg>