<?xml version="1.0" encoding="UTF-8"?>
<svg width="132px" height="180px" viewBox="0 0 132 180" version="1.1" xmlns="http://www.w3.org/2000/svg" xmlns:xlink="http://www.w3.org/1999/xlink">
    <title>Page 1</title>
    <g id="Page-1" stroke="none" stroke-width="1" fill="none" fill-rule="evenodd" opacity="0.3">
        <g id="robot" fill="#040A0C" fill-rule="nonzero">
            <g id="Group">
                <path d="M68.631,32.719 C68.631,29.22 65.784,26.373 62.285,26.373 L43.172,26.373 C42.259,25.539 41.146,24.924 39.912,24.606 L39.955,24.606 L39.955,21.314 C42.877,20.465 45.021,17.768 45.021,14.576 C45.021,10.705 41.871,7.555 38,7.555 C34.129,7.555 30.979,10.705 30.979,14.576 C30.979,17.768 33.123,20.465 36.045,21.314 L36.045,24.606 L36.088,24.606 C34.854,24.924 33.741,25.538 32.828,26.373 L13.796,26.373 C10.297,26.373 7.45,29.22 7.45,32.719 L7.45,36.359 L3.513,37.81 L0.956,38.753 L0.956,41.478 L0.956,51.144 L0.956,53.87 L3.513,54.813 L7.45,56.264 L7.45,59.904 C7.45,63.403 10.297,66.25 13.796,66.25 L19.751,66.25 L19.751,67.672 L19.751,69.581 C14.099,71.698 9.708,76.569 8.385,82.704 C5.317,83.579 3.052,86.514 3.052,90.001 L7.998,90.001 C7.998,88.555 9.021,87.378 10.277,87.378 C11.534,87.378 12.557,88.555 12.557,90.001 L17.503,90.001 C17.503,86.598 15.347,83.713 12.391,82.764 C13.476,78.813 16.211,75.612 19.75,73.844 L19.75,84.579 L19.75,88.488 L23.659,88.488 L52.339,88.488 L56.248,88.488 L56.248,84.579 L56.248,73.846 C59.785,75.614 62.519,78.814 63.605,82.764 C60.65,83.714 58.495,86.598 58.495,90.001 L63.441,90.001 C63.441,88.555 64.464,87.378 65.721,87.378 C66.978,87.378 68,88.555 68,90.001 L72.946,90.001 C72.946,86.514 70.68,83.578 67.612,82.704 C66.287,76.571 61.897,71.702 56.248,69.584 L56.248,67.673 L56.248,66.25 L62.284,66.25 C65.783,66.25 68.63,63.403 68.63,59.904 L68.63,56.234 L72.486,54.813 L75.043,53.87 L75.043,51.144 L75.043,41.478 L75.043,38.753 L72.486,37.81 L68.63,36.389 L68.63,32.719 L68.631,32.719 Z M7.45,52.097 L4.865,51.144 L4.865,41.478 L7.45,40.525 L7.45,52.097 Z M34.889,14.576 C34.889,12.858 36.282,11.465 38,11.465 C39.718,11.465 41.111,12.858 41.111,14.576 C41.111,16.294 39.718,17.688 38,17.688 C36.282,17.688 34.889,16.295 34.889,14.576 Z M52.34,84.578 L23.66,84.578 L23.66,67.672 L52.34,67.672 L52.34,84.578 Z M64.722,59.904 C64.722,61.25 63.631,62.34 62.286,62.34 L13.796,62.34 C12.45,62.34 11.36,61.249 11.36,59.904 L11.36,32.719 C11.36,31.373 12.451,30.283 13.796,30.283 L62.286,30.283 C63.632,30.283 64.722,31.374 64.722,32.719 L64.722,59.904 L64.722,59.904 Z M71.135,41.478 L71.135,51.144 L68.631,52.067 L68.631,40.555 L71.135,41.478 Z" id="Shape"></path>
                <path d="M17.026,49.501 C17.026,53.417 20.212,56.602 24.128,56.602 L51.873,56.602 C55.789,56.602 58.974,53.416 58.974,49.501 L58.974,36.02 L17.026,36.02 L17.026,49.501 Z M19.409,38.403 L56.59,38.403 L56.59,49.501 C56.59,52.102 54.474,54.219 51.872,54.219 L24.128,54.219 C21.527,54.219 19.41,52.103 19.41,49.501 L19.41,38.403 L19.409,38.403 Z" id="Shape"></path>
                <path d="M25.588,50.5 L26.663,50.5 C28.091,50.5 29.254,49.338 29.254,47.909 L29.254,44.579 L27.782,44.579 L26.226,44.579 L26.226,42.546 L26.226,41.074 L25.587,41.074 C24.159,41.074 22.996,42.236 22.996,43.665 L22.996,47.909 C22.997,49.337 24.159,50.5 25.588,50.5 Z" id="Path"></path>
                <path d="M49.485,50.825 L50.412,50.825 C51.84,50.825 53.002,49.663 53.002,48.234 L53.002,44.578 L51.53,44.578 L50.7,44.578 L50.7,42.603 L50.7,41.102 C50.604,41.091 50.511,41.073 50.413,41.073 L49.486,41.073 C48.058,41.073 46.8949994,42.235 46.8949994,43.664 L46.8949994,48.234 C46.894,49.663 48.056,50.825 49.485,50.825 Z" id="Path"></path>
                <path d="M49.646,2.841 L46.966,7.483 C47.741,7.869 48.489,8.3 49.204,8.776 L51.884,4.134 L49.646,2.841 Z" id="Path"></path>
                <path d="M39.043,0 L36.458,0 L36.458,5.363 C36.886,5.337 37.316,5.319 37.75,5.319 C38.185,5.319 38.615,5.337 39.042,5.363 L39.042,0 L39.043,0 Z" id="Path"></path>
                <path d="M25.855,2.841 L23.616,4.134 L26.296,8.776 C27.012,8.3 27.76,7.869 28.534,7.483 L25.855,2.841 Z" id="Path"></path>
                <path d="M42.442,71.757 L25.553,71.757 L25.553,80.492 L42.442,80.492 L42.442,71.757 L42.442,71.757 Z M40.059,78.109 L27.937,78.109 L27.937,74.141 L40.059,74.141 L40.059,78.109 Z" id="Shape"></path>
                <path d="M47.74,79.774 C49.752,79.774 51.388,78.137 51.388,76.125 C51.388,74.113 49.751,72.476 47.74,72.476 C45.728,72.476 44.091,74.113 44.091,76.125 C44.091,78.137 45.728,79.774 47.74,79.774 Z M47.74,74.86 C48.437,74.86 49.005,75.428 49.005,76.125 C49.005,76.823 48.437,77.39 47.74,77.39 C47.042,77.39 46.475,76.822 46.475,76.125 C46.475,75.427 47.042,74.86 47.74,74.86 Z" id="Shape"></path>
            </g>
        </g>
        <g id="robot" transform="translate(93.500000, 135.000000) scale(1, -1) translate(-93.500000, -135.000000) translate(55.500000, 90.000000)" fill="#040A0C" fill-rule="nonzero">
            <g id="Group">
                <path d="M68.631,32.719 C68.631,29.22 65.784,26.373 62.285,26.373 L43.172,26.373 C42.259,25.539 41.146,24.924 39.912,24.606 L39.955,24.606 L39.955,21.314 C42.877,20.465 45.021,17.768 45.021,14.576 C45.021,10.705 41.871,7.555 38,7.555 C34.129,7.555 30.979,10.705 30.979,14.576 C30.979,17.768 33.123,20.465 36.045,21.314 L36.045,24.606 L36.088,24.606 C34.854,24.924 33.741,25.538 32.828,26.373 L13.796,26.373 C10.297,26.373 7.45,29.22 7.45,32.719 L7.45,36.359 L3.513,37.81 L0.956,38.753 L0.956,41.478 L0.956,51.144 L0.956,53.87 L3.513,54.813 L7.45,56.264 L7.45,59.904 C7.45,63.403 10.297,66.25 13.796,66.25 L19.751,66.25 L19.751,67.672 L19.751,69.581 C14.099,71.698 9.708,76.569 8.385,82.704 C5.317,83.579 3.052,86.514 3.052,90.001 L7.998,90.001 C7.998,88.555 9.021,87.378 10.277,87.378 C11.534,87.378 12.557,88.555 12.557,90.001 L17.503,90.001 C17.503,86.598 15.347,83.713 12.391,82.764 C13.476,78.813 16.211,75.612 19.75,73.844 L19.75,84.579 L19.75,88.488 L23.659,88.488 L52.339,88.488 L56.248,88.488 L56.248,84.579 L56.248,73.846 C59.785,75.614 62.519,78.814 63.605,82.764 C60.65,83.714 58.495,86.598 58.495,90.001 L63.441,90.001 C63.441,88.555 64.464,87.378 65.721,87.378 C66.978,87.378 68,88.555 68,90.001 L72.946,90.001 C72.946,86.514 70.68,83.578 67.612,82.704 C66.287,76.571 61.897,71.702 56.248,69.584 L56.248,67.673 L56.248,66.25 L62.284,66.25 C65.783,66.25 68.63,63.403 68.63,59.904 L68.63,56.234 L72.486,54.813 L75.043,53.87 L75.043,51.144 L75.043,41.478 L75.043,38.753 L72.486,37.81 L68.63,36.389 L68.63,32.719 L68.631,32.719 Z M7.45,52.097 L4.865,51.144 L4.865,41.478 L7.45,40.525 L7.45,52.097 Z M34.889,14.576 C34.889,12.858 36.282,11.465 38,11.465 C39.718,11.465 41.111,12.858 41.111,14.576 C41.111,16.294 39.718,17.688 38,17.688 C36.282,17.688 34.889,16.295 34.889,14.576 Z M52.34,84.578 L23.66,84.578 L23.66,67.672 L52.34,67.672 L52.34,84.578 Z M64.722,59.904 C64.722,61.25 63.631,62.34 62.286,62.34 L13.796,62.34 C12.45,62.34 11.36,61.249 11.36,59.904 L11.36,32.719 C11.36,31.373 12.451,30.283 13.796,30.283 L62.286,30.283 C63.632,30.283 64.722,31.374 64.722,32.719 L64.722,59.904 L64.722,59.904 Z M71.135,41.478 L71.135,51.144 L68.631,52.067 L68.631,40.555 L71.135,41.478 Z" id="Shape"></path>
                <path d="M17.026,49.501 C17.026,53.417 20.212,56.602 24.128,56.602 L51.873,56.602 C55.789,56.602 58.974,53.416 58.974,49.501 L58.974,36.02 L17.026,36.02 L17.026,49.501 Z M19.409,38.403 L56.59,38.403 L56.59,49.501 C56.59,52.102 54.474,54.219 51.872,54.219 L24.128,54.219 C21.527,54.219 19.41,52.103 19.41,49.501 L19.41,38.403 L19.409,38.403 Z" id="Shape"></path>
                <path d="M25.588,50.5 L26.663,50.5 C28.091,50.5 29.254,49.338 29.254,47.909 L29.254,44.579 L27.782,44.579 L26.226,44.579 L26.226,42.546 L26.226,41.074 L25.587,41.074 C24.159,41.074 22.996,42.236 22.996,43.665 L22.996,47.909 C22.997,49.337 24.159,50.5 25.588,50.5 Z" id="Path"></path>
                <path d="M49.485,50.825 L50.412,50.825 C51.84,50.825 53.002,49.663 53.002,48.234 L53.002,44.578 L51.53,44.578 L50.7,44.578 L50.7,42.603 L50.7,41.102 C50.604,41.091 50.511,41.073 50.413,41.073 L49.486,41.073 C48.058,41.073 46.8949994,42.235 46.8949994,43.664 L46.8949994,48.234 C46.894,49.663 48.056,50.825 49.485,50.825 Z" id="Path"></path>
                <path d="M49.646,2.841 L46.966,7.483 C47.741,7.869 48.489,8.3 49.204,8.776 L51.884,4.134 L49.646,2.841 Z" id="Path"></path>
                <path d="M39.043,0 L36.458,0 L36.458,5.363 C36.886,5.337 37.316,5.319 37.75,5.319 C38.185,5.319 38.615,5.337 39.042,5.363 L39.042,0 L39.043,0 Z" id="Path"></path>
                <path d="M25.855,2.841 L23.616,4.134 L26.296,8.776 C27.012,8.3 27.76,7.869 28.534,7.483 L25.855,2.841 Z" id="Path"></path>
                <path d="M42.442,71.757 L25.553,71.757 L25.553,80.492 L42.442,80.492 L42.442,71.757 L42.442,71.757 Z M40.059,78.109 L27.937,78.109 L27.937,74.141 L40.059,74.141 L40.059,78.109 Z" id="Shape"></path>
                <path d="M47.74,79.774 C49.752,79.774 51.388,78.137 51.388,76.125 C51.388,74.113 49.751,72.476 47.74,72.476 C45.728,72.476 44.091,74.113 44.091,76.125 C44.091,78.137 45.728,79.774 47.74,79.774 Z M47.74,74.86 C48.437,74.86 49.005,75.428 49.005,76.125 C49.005,76.823 48.437,77.39 47.74,77.39 C47.042,77.39 46.475,76.822 46.475,76.125 C46.475,75.427 47.042,74.86 47.74,74.86 Z" id="Shape"></path>
            </g>
        </g>
    </g>
</svg>