<svg height='100px' width='100px'  fill="#040a0c" xmlns="http://www.w3.org/2000/svg" xmlns:xlink="http://www.w3.org/1999/xlink" version="1.1" x="0px" y="0px" viewBox="0 0 100 100" enable-background="new 0 0 100 100" xml:space="preserve"><g><path d="M50,61.43c-3.912,0-7.449-2.057-9.456-5.504l-4.792,2.794c2.97,5.092,8.427,8.254,14.248,8.254s11.278-3.165,14.245-8.258   l-4.793-2.786C57.449,59.373,53.916,61.43,50,61.43z"></path><path d="M40.725,46.903c0.996,0,1.956-0.368,2.624-1.068c0.7-0.667,1.071-1.628,1.071-2.627c0-0.96-0.371-1.92-1.071-2.624   c-1.368-1.328-3.844-1.328-5.212,0c-0.703,0.704-1.071,1.664-1.071,2.624c0,0.999,0.368,1.96,1.071,2.627   C38.801,46.535,39.761,46.903,40.725,46.903z"></path><path d="M59.239,46.903c0.996,0,1.96-0.368,2.624-1.068c0.7-0.667,1.107-1.628,1.107-2.627c0-0.96-0.407-1.92-1.107-2.624   c-1.368-1.328-3.844-1.328-5.212,0c-0.704,0.704-1.072,1.664-1.072,2.624c0,0.999,0.368,1.96,1.072,2.627   C57.315,46.535,58.279,46.903,59.239,46.903z"></path><path d="M50,7.5C26.53,7.5,7.5,26.527,7.5,50c0,6.334,1.422,12.325,3.908,17.724L7.5,92.5l24.776-3.908   C37.675,91.078,43.666,92.5,50,92.5c23.47,0,42.5-19.026,42.5-42.5C92.5,26.527,73.47,7.5,50,7.5z M50,85.108   c-5.053,0-9.979-1.086-14.631-3.229c-0.975-0.447-2.028-0.679-3.093-0.679c-0.383,0-0.77,0.028-1.151,0.09l-14.739,2.324   l2.324-14.739c0.228-1.439,0.021-2.92-0.589-4.244c-2.144-4.652-3.229-9.574-3.229-14.631c0-19.358,15.749-35.108,35.108-35.108   c19.358,0,35.108,15.75,35.108,35.108C85.108,69.359,69.358,85.108,50,85.108z"></path></g></svg>