<svg height='100px' width='100px'  fill="#666666" xmlns="http://www.w3.org/2000/svg" xmlns:xlink="http://www.w3.org/1999/xlink" version="1.1" x="0px" y="0px" viewBox="0 0 100 100" style="enable-background:new 0 0 100 100;" xml:space="preserve"><circle cx="67.5" cy="51" r="4.9"></circle><circle cx="50.3" cy="51" r="4.9"></circle><circle cx="33.2" cy="51" r="4.9"></circle><path d="M50,0.8C22.9,0.8,0.8,22.9,0.8,50.1c0,8.7,2.3,17.2,6.6,24.6L7.6,75L3.2,90.1c-0.6,1.9,0,4,1.4,5.4  c1.4,1.4,3.5,2,5.4,1.4l15.2-4.4l0.3,0.2C33,97,41.4,99.3,50,99.3c27.1,0,49.2-22.1,49.2-49.2S77.1,0.8,50,0.8z M50,95.5  c-8.3,0-16.4-2.3-23.5-6.5l-0.7-0.4L9,93.3c-0.6,0.2-1.3,0-1.7-0.4c-0.4-0.4-0.6-1.1-0.4-1.7l4.8-16.7l-0.4-0.7  c-4.4-7.1-6.7-15.3-6.7-23.7C4.6,25,25,4.7,50,4.7S95.4,25,95.4,50.1C95.4,75.1,75,95.5,50,95.5z"></path></svg>